# xmcd CD database file
#
# Track frame offsets:
#	150
#	9990
#	21062
#	32898
#	50529
#	65257
#	82109
#	102910
#	117742
#	131036
#	142186
#	153765
#	168914
#	179396
#	191967
#	202902
#	213590
#	224972
#	238154
#	251064
#	273821
#
# Disc length: 3807 seconds
#
# Revision: 0
# Processed by: cddbd v1.5.2PL0 Copyright (c) Steve Scherf et al.
# Submitted via: CDex 1.70beta2
#
DISCID=410edd15
DTITLE=Johnny Cash - Solitary Man and Anerican Recordings
DYEAR=1994
DGENRE=Country
TTITLE0=I Won't Back Down
TTITLE1=Solitary Man
TTITLE2=That Lucky Old Sun (Just Rolls
TTITLE3=One
TTITLE4=Nobody
TTITLE5=I See A Darkness
TTITLE6=The Mercy Seat
TTITLE7=Field Of Diamonds
TTITLE8=Before My Time
TTITLE9=Country Trash
TTITLE10=Mary Of The Wild Moor
TTITLE11=Wayfaring Stranger
TTITLE12=Delia's Gone
TTITLE13=The Beast In Me
TTITLE14=Drive On
TTITLE15=Why Me Lord
TTITLE16=Thirteen
TTITLE17=Tennessee Stud
TTITLE18=Like A Soldier
TTITLE19=The Man Who Couldn't Cry
TTITLE20=Ring Of Fire
EXTD=YEAR: 1994
EXTT0=
EXTT1=
EXTT2=
EXTT3=
EXTT4=
EXTT5=
EXTT6=
EXTT7=
EXTT8=
EXTT9=
EXTT10=
EXTT11=
EXTT12=
EXTT13=
EXTT14=
EXTT15=
EXTT16=
EXTT17=
EXTT18=
EXTT19=
EXTT20=
PLAYORDER=
